<?xml version="1.0" encoding="UTF-8"?>
<svg id="Layer_1" data-name="Layer 1" xmlns="http://www.w3.org/2000/svg" version="1.1" viewBox="0 0 514.95 582.27">
  <defs>
    <style>
      .cls-1 {
        fill: #439c05;
        stroke-width: 1-1px;
      }
    </style>
  </defs>
  <path class="cls-1" d="M205.65,287.86c9.76,7.38,20,7.94,30.93,3.53,5.37-2.17,8.62-.28,10.07,5.35.58,2.26.69,4.65,1.14,7.97,2.18-8.05,2.64-15.25,1.1-22.52-2.89-13.65-10.32-20.01-24.32-20.98-.45-.03-.91-.06-2.56-.16,16.7-10.97,29.05-24.33,35.53-43.31,6.25,19.07,18.7,32.3,34.73,43.14-3.34.64-6.14.96-8.8,1.72-11.04,3.15-17.45,11.74-17.97,24.69-.21,5.16.61,10.37.96,15.56l1.02.03c.25-1.83.44-3.67.76-5.49,1.04-5.89,4.29-8.06,9.81-5.92,8.66,3.35,17.18,4.02,25.7-.15,2.22-1.09,4.26-2.53,6.66-3.97,3.1,5.11,4.1,11.02,4.72,16.83,2.2,20.74-3.16,39.41-17,55.14-8.21,9.33-18.06,16.94-29.64,21.7-10.01,4.11-19.7,2.46-28.88-3.26-10.23-6.38-19.84-13.42-26.69-23.56-11.65-17.23-15.98-36.08-11.7-56.57.69-3.33,2.85-6.35,4.44-9.77ZM280.66,345.86c-2.56-.87-5.1-1.48-7.41-2.57-5.23-2.48-10.12-6.15-16.47-3.91-.43.15-1.04.09-1.47-.1-3.13-1.36-5.8,0-8.49,1.34-3.9,1.92-7.81,3.81-12.23,5.96,1.32.67,2.6,1.8,3.98,1.94,6.35.62,12.73.97,19.1,1.41.49.03,1.05.09,1.48-.1,4.89-2.15,9.94-1.3,15.01-1.01,2.53.14,5.26-.17,6.5-2.95ZM244.3,320.42c-.85,3.02-.67,6.41,3.71,8.36.97.43,1.7,1.45,2.5,2.23,4.57,4.43,8.59,4.56,13.41.36,1.31-1.14,2.34-2.92,3.84-3.49,4.34-1.64,3.75-4.81,3.32-8.19-1.15.64-2.39,1.86-3.01,1.6-3.53-1.49-6.91-1.71-10.45-.11-.54.24-1.41-.37-2.14-.4-2.03-.07-4.06-.02-6.08-.07-1.6-.04-3.2-.18-5.09-.29ZM270.03,355.66h-24.42c3.31,8.84,19.27,9.33,24.42,0Z"/>
  <path class="cls-1" d="M353.88,301.69c-10.33-25.71-29.19-44.48-49.19-62.33-9.28-8.28-18.67-16.44-28.33-24.53,2.23,3.35,4.15,6.96,6.74,10,8.57,10.06,17.18,20.1,26.16,29.79,12.11,13.06,23.11,26.85,30.98,42.94,11.84,24.19,11.63,49.06,4.05,74.28-1.92,6.4-4.48,12.6-7.54,18.61,1.9-6.79,4.06-13.52,5.66-20.38,6.07-25.98.59-50.04-11.89-73.13-9.73-18.01-22.41-33.64-37.05-47.69-18.12-17.39-29.94-38.08-34.82-62.72-.24-1.2-.65-2.36-1.19-4.31-1.65,6-3.13,11.21-4.51,16.45-5.17,19.56-16.76,35.16-30.41,49.51-12.4,13.03-24.66,26.16-33.84,41.8-7.87,13.42-14.37,27.39-17.07,42.84-3.09,17.64-.34,34.75,5.04,51.58.53,1.66,1.08,3.31,1.6,4.98.03.09-.09.22-.29.69-.65-1.21-1.29-2.17-1.72-3.22-8.23-20-12.85-40.58-9.81-62.34,2.11-15.13,8.61-28.48,16.6-41.27,9.55-15.26,22.51-27.59,34.38-40.89,7.2-8.07,13.55-16.91,20.24-25.43.81-1.04,1.36-2.28,1.88-3.53-20.02,19.52-43.17,35.74-60.33,58.18-7.22,9.44-13.42,19.45-17.52,30.69-.34-.1-.67-.2-1.01-.29,1.23-5.1,2.1-10.32,3.75-15.28,5.55-16.67,16.31-29.9,28.78-41.78,11.29-10.76,22.96-21.11,34.47-31.63,1.73-1.58,3.48-3.15,4.91-5.05-27.18,16.36-53.62,33.55-71.99,60.37,12.57-28.47,36.36-46.27,60.57-63.73-23.01,9.86-44.55,21.64-58.14,44.48,11.62-36.15,41.49-70.04,94.02-70.52,45.87-.42,80.94,26.97,94.88,69.17-13.75-21.47-37.79-34.85-56.95-42.91,7.81,6.16,15.91,12.01,23.36,18.58,7.46,6.58,14.52,13.67,21.29,20.97,6.87,7.41,12.41,15.82,15.71,25.53-18.22-27.84-45.51-45.23-72.49-62.94,5.31,5.43,10.55,10.97,15.99,16.32,12.17,11.99,24.83,23.51,36.55,35.93,9.96,10.56,15.5,23.71,18.15,37.99.26,1.39.23,2.83.34,4.24Z"/>
  <path class="cls-1" d="M71.89,512.71c19.05.94,45.01,1.64,70.86,3.66,28.02,2.19,55.09,8.92,81.05,19.94,9.48,4.02,15.32,10.12,15.39,21.1.04,6.99,4.99,11.85,12.33,13.59,5.65,1.34,11.19,1.05,16.42-1.56,4.64-2.31,7.91-5.9,7.94-11.34.07-11.32,5.74-18.13,16.03-22.31,20.7-8.41,42.11-13.9,64.15-17.38,32.83-5.2,65.9-5.32,98.97-4.87,17.21.23,34.42,1.21,51.62,1.99,5.41.25,7.95,2.95,8.27,7.75.17,2.47-.78,3.43-3.19,3.33-16.94-.72-33.88-1.67-50.82-2.02-15.85-.33-31.75-.64-47.56.18-19.76,1.03-39.53,2.71-59.18,5.07-20.21,2.42-39.81,7.76-58.69,15.55-4.99,2.06-8.43,5.12-8.5,11.02-.17,14.38-9.83,23.83-24.8,25.55-11.31,1.3-21.62-1.26-29.16-10.72-3.4-4.27-4.88-9.3-4.89-14.62-.02-5.79-3.14-9.15-8.09-10.85-10.95-3.77-21.91-7.61-33.05-10.72-20.62-5.76-41.84-8.1-63.13-9.03-22.93-1.01-45.91-1.38-68.87-1.41-16.45-.02-32.9,1.03-49.36,1.45-1.82.05-4.65-.34-5.28-1.49-1.34-2.41,1.48-7.55,4.11-8.26,2.15-.58,4.41-.87,6.64-.97,17.95-.81,35.91-1.55,60.8-2.61Z"/>
  <path class="cls-1" d="M264.55,506.96c6.04-30.69,21.33-54.85,43.57-74.75,19.17-17.15,41.28-29.64,65.13-39.06,2.14-.85,4.91-1.06,7.15-.54,7.52,1.76,14.83,4.43,22.39,5.89,6.95,1.34,14.12,1.56,21.18,2.3,1.56.16,3.1.43,4.76,1.48-10.4,3.73-20.88,7.29-31.2,11.23-37.46,14.29-72.21,33.33-102.87,59.39-10.89,9.26-20.39,19.82-28.36,31.71-.34.5-.73.97-1.77,2.35Z"/>
  <path class="cls-1" d="M250.88,506.52c-8.09-11.71-17.23-21.89-27.4-31.12-21.21-19.26-45.29-34.22-70.89-46.89-19.48-9.64-39.89-16.88-60.38-23.96-2.21-.76-4.37-1.67-6.54-3.3,2.59-.34,5.18-.92,7.78-.97,13.85-.23,27.15-3.32,40.35-7.23,2.44-.72,5.59-.71,7.95.19,30.96,11.9,58.5,28.99,80.27,54.41,14.34,16.76,24.03,35.99,29,57.52.05.23-.04.49-.14,1.34Z"/>
  <path class="cls-1" d="M249.55,518.91c-55.39-53.44-124.3-73.96-198.68-81.2.03-.3.07-.6.1-.9,3.24-1.46,6.46-2.97,9.73-4.36,10.32-4.39,20.71-8.62,30.98-13.13,3.54-1.56,6.96-1.46,10.54-.67,17.9,3.97,34.56,11.25,50.98,19.14,24.63,11.84,47.45,26.48,67.85,44.73,11.6,10.38,21.68,22.02,28.49,36.4Z"/>
  <path class="cls-1" d="M464.93,437.42c-6.76.87-12.49,1.56-18.2,2.36-44.97,6.24-88.48,17.22-128.23,40.09-18,10.36-34.66,22.61-49.98,36.65-.54.49-1.08.99-1.63,1.48l-.87-.62c3.05-4.69,5.84-9.56,9.18-14.04,10.48-14.03,23.64-25.28,37.67-35.59,27.04-19.86,56.4-35.21,88.16-46.1,10.22-3.51,19.69-4.23,29.76.89,10.09,5.13,20.82,8.99,31.26,13.42.66.28,1.28.64,2.87,1.45Z"/>
  <path class="cls-1" d="M312.57,501.01c9.99-4.41,19.9-9.03,29.99-13.2,26.74-11.05,54.47-18.55,83.17-22.23,10.26-1.31,20.6-2.02,30.91-2.78,1.57-.12,3.43.67,4.8,1.56,5.4,3.52,10.65,7.26,15.95,11.29-28.13-1.05-56.12-.21-83.99,3.83-27.8,4.02-54.61,11.44-80.3,23.05l-.54-1.52Z"/>
  <path class="cls-1" d="M36.78,475.97c3.99-2.8,7.67-4.92,10.78-7.68,5.24-4.64,11.08-5.78,17.92-5.27,36.68,2.74,72.36,9.78,106.35,24.23,10.55,4.49,20.95,9.33,31.4,14.04,1.41.64,2.72,1.51,3.97,2.58-54.01-24.92-111.1-30.79-170.41-27.91Z"/>
  <path class="cls-1" d="M490.27,492.23c-35.27-1.89-69.75-2.41-104.19,1.21-34.28,3.6-67.63,10.83-99.41,24.58,5.51-4.28,11.35-7.65,18.08-9.92,19.36-6.54,38.57-13.72,58.82-16.9,19.29-3.04,38.71-5.72,58.18-7.1,16.12-1.14,32.39-.29,48.59-.05,7.8.12,12.72,2.38,19.94,8.18Z"/>
  <path class="cls-1" d="M226.31,516.85c-31.68-13.29-64.79-20.61-98.88-23.89-34.07-3.28-68.17-2.42-102.59-.7,7.51-7.28,16.61-8.66,26.05-8.89,28.47-.68,56.8.23,85.04,4.76,27.45,4.4,53.97,11.56,79.52,22.44,3.81,1.62,7.61,3.29,11.41,4.94l-.55,1.35Z"/>
  <path class="cls-1" d="M274.91,518.18c5.4-4.47,10.58-9.24,16.24-13.36,20.2-14.69,42.34-25.81,65.58-34.81,30.1-11.66,61.51-17.71,93.37-21.9,7.88-1.04,14.41,2.41,21.08,5.98-35.04,2.18-69.7,6.45-103.15,17.4-33.32,10.9-64.75,25.63-92.47,47.56-.22-.29-.44-.58-.65-.87Z"/>
  <path class="cls-1" d="M257.62,0c.77,5.76,1.36,11.55,2.34,17.27,1.67,9.68,6.97,16.36,17.43,19.22-1.28.58-1.94.89-2.61,1.17-9.97,4.18-14.64,12.28-15.41,22.49-.59,7.81.09,15.71.08,23.57-.04,20.34-.09,40.67-.29,61.01-.05,4.45-.78,8.9-1.84,13.34-.59-7.7-1.67-15.39-1.67-23.09,0-21.96.46-43.92.67-65.89.03-3.48,0-7-.45-10.44-1.4-10.77-6.77-18.55-18.17-22.28,13.83-3.29,17.57-13.26,18.57-25.16.31-3.73.7-7.45,1.05-11.17.1-.01.21-.02.31-.03Z"/>
  <path class="cls-1" d="M239.49,517.38c-58.2-42.73-124.24-60.59-195.44-63.28,5.48-2.92,10.29-6.8,17.07-6.13,29.13,2.89,57.73,8.28,85.54,17.54,27.39,9.11,53.15,21.54,76.65,38.38,5.69,4.08,10.8,8.97,16.18,13.49Z"/>
  <path class="cls-1" d="M139.16,232.26c-13.66-4.18-27.37-8.19-40.97-12.58-19.24-6.2-36.37-16.84-54.19-26.05-5.97-3.09-12.21-5.65-18.36-8.41-1.09-.49-2.29-.73-4.48-1.41,1.19,3.37,2.08,5.89,2.97,8.4-.28.21-.56.42-.85.64-1.77-1.53-3.54-3.06-5.48-4.73-1.33,2.3-2.61,4.53-3.89,6.76-.52-.14-1.04-.28-1.56-.42.3-2.59.6-5.17.96-8.34-2.84.76-5.55,1.49-8.98,2.41,1.12-4.65,4.85-4.52,7.51-6.29-2.88-1.76-5.66-3.46-8.43-5.15.2-.51.39-1.02.59-1.52,1.5.38,3.02.71,4.51,1.15,1.52.45,3.01,1.01,4.99,1.68-.61-3.13-1.14-5.82-1.66-8.52.41-.22.83-.44,1.24-.66,1.58,2.38,3.16,4.76,4.88,7.36,1.45-1.9,2.93-3.84,4.72-6.19,2.86,3.52-.92,5.93-.82,9.06h6.51c-1.41,1.5-2.2,2.33-3.48,3.69,11.57,4.37,22.86,8.92,34.35,12.9,23.51,8.14,46.39,17.66,68.24,29.61,3.9,2.13,7.94,3.99,11.91,5.98-.08.21-.16.42-.24.63Z"/>
  <path class="cls-1" d="M490.56,192.56c.93-2.51,1.87-5.02,3.11-8.37-2.55.79-4.48,1.12-6.16,1.95-10.49,5.21-21.23,10.01-31.31,15.94-22.62,13.29-47.12,21.42-72.34,27.81-2.64.67-5.24,1.5-8.27,2.37,36.2-20.93,75.51-33.56,114.19-49.08-1.25-1.42-1.99-2.27-3.15-3.58,1.46,0,2.38-.02,3.29,0,.98.03,1.95.11,3.29.2-1.06-3.09-2.02-5.88-2.99-8.67l1.34-.63c1.7,2.01,3.4,4.03,5.28,6.26,1.27-2.61,2.45-5.02,3.63-7.43.54.12,1.07.25,1.61.37-.14,2.63-.27,5.25-.43,8.26,2.74-.85,5.52-1.71,8.31-2.56.29.49.57.99.86,1.48-2.4,1.74-4.81,3.49-7.38,5.35,2.27,1.35,4.72,2.8,7.17,4.25-.2.56-.4,1.12-.61,1.67-2.72-.54-5.44-1.08-8.59-1.7.42,2.51.85,5.06,1.28,7.6-.41.14-.81.29-1.22.43-1.61-2.04-3.21-4.08-5.06-6.43-1.51,1.96-2.86,3.7-4.21,5.44-.55-.31-1.09-.63-1.64-.94Z"/>
  <path class="cls-1" d="M502.51,503.22c-12.82,0-25.77.06-38.72-.01-31.41-.18-62.86-1.09-94.18,1.97-24.92,2.43-49.46,7.09-73.12,15.61-.67.24-1.36.41-2.05.62-.11-.3-.23-.6-.34-.9,6.13-2.42,12.17-5.14,18.42-7.21,27.89-9.26,56.76-13.13,85.95-14.23,23.41-.88,46.88-1,70.31-.66,10,.14,19.97,2.28,29.95,3.6,1.41.19,2.75.87,3.79,1.21Z"/>
  <path class="cls-1" d="M219.05,520.86c-6.12-1.96-12.2-4.06-18.37-5.86-18.96-5.54-38.34-8.91-58.03-9.97-18.54-1-37.12-1.64-55.68-1.78-22.68-.17-45.36.36-68.04.59-2.23.02-4.46,0-6.71-.31,7.79-3.8,16.22-4.3,24.54-4.48,22.94-.52,45.91-1.31,68.84-.68,32.17.88,64.14,4.1,95,14.14,6.36,2.07,12.5,4.81,18.75,7.24-.09.37-.19.75-.28,1.12Z"/>
  <path class="cls-1" d="M286.86,155.95c4.77-31.6,11.25-62.61,22-92.61,2.77-7.74,5.35-15.56,7.6-23.46.86-3.01.55-6.36.79-9.73-2.24.47-4.22.89-6.2,1.31-.26-.41-.52-.81-.78-1.22,1.68-1.42,3.35-2.83,5.83-4.93-2.02-1.24-4.26-2.62-6.5-4,.48-.63.96-1.27,1.43-1.9,2.23.94,4.45,1.87,7.11,2.98.15-2.62.29-4.98.43-7.34l1.29-.38c.88,2.15,1.77,4.3,2.71,6.6,1.36-1.72,2.55-3.22,3.74-4.72.43.17.87.34,1.3.51-.72,2.36-1.43,4.71-2.23,7.34,1.6.34,3.38.64,5.1,1.15.58.17,1,.89,1.5,1.36-.6.46-1.16,1.2-1.82,1.31-1.57.27-3.19.24-5.27.36.7,2.51,1.3,4.68,1.91,6.85-.27.2-.54.41-.81.61-1.55-1.37-3.09-2.73-5.54-4.89-2.6,12.16-5.44,23.67-7.49,35.31-5.11,29.08-14.29,56.95-24.46,84.55-.6,1.62-1.1,3.28-1.65,4.92Z"/>
  <path class="cls-1" d="M198.68,30.35c-1.17,5.84.87,11.14,2.55,16.58,6.31,20.47,13.08,40.83,18.42,61.55,4.15,16.11,6.45,32.69,9.27,47.49-16.2-38.99-25.23-81.6-33.62-124.91-2.55,2.11-4.18,3.46-5.81,4.81-.28-.2-.55-.4-.83-.6.66-2.02,1.32-4.04,2.06-6.32-2.75-.48-5.24-.91-7.73-1.34,0-.55,0-1.1.01-1.65,2.38-.39,4.76-.77,7.44-1.21-1.06-2.57-2.08-5.04-3.1-7.52.39-.25.77-.5,1.16-.76,1.62,1.53,3.25,3.06,5.18,4.87.51-2.31.97-4.36,1.42-6.42l1.35-.18c.56,2.27,1.12,4.53,1.72,6.98,2.02-.77,4.02-1.54,6.02-2.31l.82.94c-1.54,1.86-3.09,3.72-4.71,5.68,1.64,1.22,3.41,2.54,5.17,3.86-.08.4-.16.79-.24,1.19-2.18-.25-4.37-.49-6.55-.73Z"/>
  <path class="cls-1" d="M122.99,315.48c-14.81,4.69-29.53,9.67-44.45,14-13.48,3.91-27.17,7.07-40.74,10.66-4.86,1.28-10.16,1.85-13.05,7.38-6.7-5.59-13.51-1.43-20.85-.96,6.71-3.27,14.79-3.2,18.46-11.3,3.78,4.37,7.87,2.78,12.11,1.33,28.22-9.68,57.2-16.38,86.51-21.75.6-.11,1.21-.13,1.81-.19.07.28.14.57.21.85Z"/>
  <path class="cls-1" d="M372.11,48.22c-16.32,40.21-33.04,80.22-57.13,115.58,14.48-40.1,35.56-77.96,57.13-115.58Z"/>
  <path class="cls-1" d="M200.5,163.77c-23.95-35.82-40.97-75.51-57.01-115.68,21.23,37.56,42.52,75.09,57.01,115.68Z"/>
  <path class="cls-1" d="M510.25,345.94c-6.3.35-11.89-3.87-16.66,1.56-7.32-8.3-17.92-7.38-27.11-10.17-24.26-7.37-48.62-14.39-72.94-21.56-.54-.16-1.03-.49-1.41-1.22,12.78,2.6,25.7,4.69,38.32,7.92,17.6,4.51,35.01,9.75,52.43,14.95,4.22,1.26,7.95,1.89,11.71-1.8,2.8,6.65,9.09,7.82,15.66,10.31Z"/>
  <path class="cls-1" d="M485.66,240.71c7.86,7.68,16.24,1.31,23.58,2.59-6.8,3.37-16.67,1.74-21.44,11.3-4.43-6.22-9.76-2.94-14.58-1.95-20.27,4.14-40.76,6.47-61.35,8.07-4.09.32-8.18.62-12.4.15,10.52-2.29,20.98-4.95,31.58-6.79,15.1-2.62,30.3-4.7,45.47-6.9,4.02-.58,7.65-1.46,9.14-6.47Z"/>
  <path class="cls-1" d="M455.87,135.87c-31.86,25.06-64.15,49.63-98.81,70.88,29.26-28.7,63.06-51.08,98.81-70.88Z"/>
  <path class="cls-1" d="M155.78,206.33c-32.71-23.4-65.42-46.81-98.13-70.21.19-.27.38-.54.58-.8,17.92,5.8,84.96,53.54,98.36,70.05-.27.32-.54.64-.81.96Z"/>
  <path class="cls-1" d="M114.86,261.61c-6.8-.61-13.63-1.01-20.4-1.87-16.27-2.06-32.52-4.31-48.77-6.54-2.57-.35-5.13-.9-7.66-1.52-3.89-.95-7.65-1.61-10.65,3.1-4.52-9.64-14.09-8.38-22.48-11.94,2.77.3,4.49.48,6.21.69,1.73.2,3.46.43,5.19.66,4.42.59,8.7.57,12.47-3.54,2.33,5.94,7.28,6.21,12.19,6.66,24.11,2.24,47.72,7.28,71.22,12.92.94.22,1.85.56,2.77.85-.03.18-.05.35-.08.53Z"/>
  <path class="cls-1" d="M126.12,287.15c-40.5,6.92-81.65,6.2-122.61,4.74,19.15-4.04,90.2-6.79,122.61-4.74Z"/>
  <path class="cls-1" d="M407.97,87.83c-21.93,32.3-43.2,63.71-70.08,90.84,1.16-8.37,55.29-78.85,70.08-90.84Z"/>
  <path class="cls-1" d="M179.22,180.23c-16.12-15.12-65.12-78.41-71.51-92.09,11.93,10.07,58.11,69.36,71.51,92.09Z"/>
  <path class="cls-1" d="M508.28,291.88c-39.61,1.39-79.2,2.29-117.86-4.55,39.06-3.6,78.45.66,117.86,4.55Z"/>
  <path class="cls-1" d="M138.85,344.48c-26.96,19.53-58.09,27.24-87.79,38.26,27.72-15.57,56.53-28.63,87.79-38.26Z"/>
  <path class="cls-1" d="M376.94,344.87c30.46,9.02,59,22.46,86.64,38.11-14.76-5.47-29.45-11.15-44.31-16.34-15.14-5.29-29.27-12.42-42.32-21.77Z"/>
  <path class="cls-1" d="M314.81,346.36c7.12-3.79,9.93-9.88,11.01-17.38,1.1,7.24,3.36,13.75,10.79,17.85-8.27,5.2-9.73,13.36-10.96,21.76-.16-8.99-2.49-16.87-10.84-22.23Z"/>
  <path class="cls-1" d="M189.36,368.53c-.78-8.44-2.22-16.45-10.75-21.58,6.89-4.03,9.47-10.4,10.64-17.77,1.32,7.24,4.13,13.48,11.37,17.32-8.75,5.06-10.4,13.29-11.26,22.03Z"/>
  <path class="cls-1" d="M304.75,280.18c-7.53,7.26-16.03,6.97-24.96,3.24,6.76-12.09,19.5-11.46,24.96-3.24Z"/>
  <path class="cls-1" d="M235.12,282.97c-9.28,4.96-17.07,3.84-24.17-2.55,6.6-9.02,18-8,24.17,2.55Z"/>
  <path class="cls-1" d="M343.33,196.03c9.5-9.69,18.43-19.08,27.68-28.15,6.5-6.37,13.4-12.34,20.2-18.4.65-.58,1.84-.54,2.77-.79-.33.94-.38,2.18-1.03,2.77-15.96,14.51-31.99,28.95-48.01,43.4-.36.33-.79.57-1.61,1.16Z"/>
  <path class="cls-1" d="M121.96,147.53c16.44,15.3,32.88,30.6,49.31,45.9-6.15-1.06-50.13-41.4-50.32-44.92l1-.98Z"/>
  <path class="cls-1" d="M378.67,249.26c7.16-2.38,14.25-4.99,21.48-7.11,13.25-3.87,26.59-7.48,39.91-11.11,1.03-.28,2.26.18,3.39.29-.76.75-1.41,1.95-2.31,2.19-20.28,5.46-40.58,10.81-60.88,16.17-.45.12-.93.15-1.4.22-.07-.22-.13-.44-.2-.67Z"/>
  <path class="cls-1" d="M71.97,229.7c21.24,6.17,42.51,12.34,63.78,18.52-.1.42-.2.83-.29,1.25-1.82-.33-3.68-.52-5.46-1-18.65-4.96-37.3-9.93-55.93-15-1.29-.35-3.97-.32-2.09-3.77Z"/>
  <path class="cls-1" d="M282.53,91.7c-2.79,18.45-5.59,36.9-8.38,55.36-.42-.06-.84-.13-1.27-.19,1.06-18.73,3.8-37.22,6.63-55.69,1.01.17,2.01.35,3.02.52Z"/>
  <path class="cls-1" d="M241.4,147.55c-1.02-5.77-2.15-11.53-3.02-17.32-1.71-11.41-3.28-22.85-4.91-34.28-.11-.74-.41-1.51-.28-2.2.16-.86.68-1.66,1.04-2.48.63.72,1.69,1.37,1.81,2.16,1.31,8.35,2.65,16.7,3.62,25.09,1.03,8.89,1.68,17.82,2.48,26.74.06.72,0,1.45,0,2.18l-.75.11Z"/>
  <path class="cls-1" d="M371.78,215.49c15.41-10.72,32.01-18.35,48.68-27.84-1.16,4.88-40.53,26.57-48.68,27.84Z"/>
  <path class="cls-1" d="M95.46,187.95c16.05,8.89,32.1,17.79,48.14,26.68-6.75-.2-48.02-22.56-48.89-25.59l.75-1.09Z"/>
  <path class="cls-1" d="M127.05,273.13c-12.44,0-24.88.05-37.32-.03-4.48-.03-8.97-.28-13.44-.58-.76-.05-1.47-.92-2.21-1.41.72-.49,1.46-1.43,2.15-1.4,16.98.86,33.96,1.83,50.94,2.78-.04.21-.08.43-.12.64Z"/>
  <path class="cls-1" d="M386.59,299.5c12.94,1.42,25.88,2.82,38.82,4.28,4.45.5,8.89,1.1,13.3,1.85.95.16,1.76,1.14,2.63,1.74-1.04.41-2.14,1.28-3.11,1.15-11.44-1.57-22.87-3.24-34.28-4.98-5.86-.9-11.68-2-17.52-3.01.05-.34.1-.68.15-1.02Z"/>
  <path class="cls-1" d="M124.94,300.41c-9.65,3.64-49.13,8.91-52.12,6.58,17.15-3.86,34.61-5.43,52.12-6.58Z"/>
  <path class="cls-1" d="M440.4,270.63c-2.43,2.79-41.18,4.59-52.76,2.78,17.53-2.01,35.11-3.15,52.76-2.78Z"/>
  <path class="cls-1" d="M473.28,160.27c-1.68,1.97-4.43,5.21-6.76,7.95-2.42-2.76-5.23-5.96-6.98-7.96,2.59-2.33,5.54-4.99,8.49-7.65-1.08-.1-2.16-.2-3.23-.3,2.92,2.75,5.85,5.5,8.48,7.98Z"/>
  <path class="cls-1" d="M96.06,343.27c1.3-2.84,37.88-16.44,47.67-17.71-8.13,5.14-44.1,18.51-47.67,17.71Z"/>
  <path class="cls-1" d="M370.89,324.63c16.41,5.71,32.83,11.42,49.24,17.13-.09.54-.18,1.09-.27,1.63-.94.1-2,.54-2.8.25-15.61-5.71-31.2-11.5-46.78-17.27.2-.58.41-1.16.61-1.74Z"/>
  <path class="cls-1" d="M46.67,152.69c2.99,2.63,5.99,5.27,8.71,7.66-1.56,1.84-4.14,4.86-6.47,7.6-2.46-2.72-5.35-5.9-7.86-8.67,2.34-2.44,5.02-5.23,7.69-8.02-.69.48-1.39.95-2.08,1.43Z"/>
  <path class="cls-1" d="M365.46,357.91c9.65,6.75,19.32,13.48,28.93,20.31.6.43.68,1.59,1,2.4-.88-.09-1.98.14-2.6-.3-9.52-6.94-18.98-13.97-28.45-20.98.37-.48.75-.95,1.12-1.43Z"/>
  <path class="cls-1" d="M149.57,360.05c-8.99,6.8-17.97,13.63-27.02,20.36-.6.45-1.73.17-2.62.24.28-.8.32-1.94.88-2.34,9.23-6.62,18.53-13.14,27.81-19.68.31.48.63.95.94,1.43Z"/>
  <path class="cls-1" d="M124.74,83.89c2.51-2.16,4.65-4,6.95-5.97,2.08,2.05,4.16,4.11,6.32,6.23-2.08,2.21-4.01,4.27-6.12,6.51-2.28-2.16-4.51-4.26-7.15-6.77Z"/>
  <path class="cls-1" d="M383.47,77.96c2.1,2,4.22,4.01,6.53,6.21-2.38,2.07-4.51,3.92-6.92,6.02.32.15-.05.08-.27-.14q-6.2-6.14.66-12.08Z"/>
  <path class="cls-1" d="M312.35,128.35c.18-1.17.16-2.42.57-3.51,2.66-7.1,5.37-14.17,8.19-21.21.32-.81,1.41-1.32,2.14-1.96.16,1.01.75,2.18.43,3.01-2.76,7.19-5.67,14.32-8.59,21.45-.39.94-1.07,1.76-1.62,2.63l-1.13-.41Z"/>
  <path class="cls-1" d="M201.82,129.04c-.54-.98-1.19-1.92-1.61-2.95-2.88-7-5.78-13.99-8.51-21.04-.41-1.06,0-2.45.03-3.69.83.84,2.02,1.52,2.43,2.53,2.72,6.66,5.31,13.37,7.85,20.1.55,1.47.7,3.1,1.03,4.65-.4.13-.8.26-1.2.4Z"/>
  <path class="cls-1" d="M62.05,394.36c2.07,1.93,4.13,3.86,6.31,5.9-1.53,1.72-3.38,3.8-5.19,5.83-1.96-1.96-3.93-3.93-6.13-6.13,1.72-1.92,3.64-4.08,5-5.6Z"/>
  <path class="cls-1" d="M230.85,74.58c-1.09-7.47-2.18-14.94-3.27-22.4.37-.18.75-.35,1.12-.53.69.64,1.9,1.22,1.98,1.92.71,6.97,3.06,13.87,1.98,20.93-.6.03-1.2.06-1.81.09Z"/>
  <path class="cls-1" d="M345.31,143.04c-4.24,8.1-9.42,15.63-15,22.9-.31-.19-.63-.37-.94-.56,4.6-7.87,9.2-15.73,13.8-23.6.72.42,1.43.84,2.15,1.26Z"/>
  <path class="cls-1" d="M283.08,74.35c-.83-7.62.78-14.98,1.97-22.66,2.84,1.96,1.48,18.63-1.97,22.66Z"/>
  <path class="cls-1" d="M169.38,142.69c3.83.06,13.82,15.37,15.63,23.62-5.1-7.7-10.19-15.4-15.63-23.62Z"/>
  <path class="cls-1" d="M165.36,130.8c-.73-.65-1.59-1.2-2.15-1.97-3.38-4.61-6.74-9.23-9.96-13.96-.55-.81-.37-2.13-.53-3.21.97.49,2.31.73,2.86,1.52,3.8,5.45,7.43,11.02,11.12,16.55-.44.36-.89.71-1.33,1.07Z"/>
  <path class="cls-1" d="M404.18,127.27c2.37,1.09,4.62,2.06,6.81,3.17.56.29.92.99,1.36,1.51-.61.49-1.19,1.36-1.82,1.39-3.21.16-6.43.18-9.64.07-.7-.02-1.38-.77-2.07-1.18.52-.73.92-1.6,1.58-2.17,1.2-1.04,2.55-1.9,3.78-2.79Z"/>
  <path class="cls-1" d="M107.74,127.27c1.73.96,3.61,1.91,5.39,3.03.61.38.96,1.18,1.42,1.79-.57.41-1.12,1.14-1.71,1.16-3.48.13-6.96.17-10.44.04-.62-.02-1.21-.96-1.81-1.48.47-.51.85-1.17,1.42-1.5,1.81-1.05,3.7-1.98,5.73-3.05Z"/>
  <path class="cls-1" d="M181.2,65.84c-1.62,1.14-3.14,2.97-4.9,3.24-2.52.39-4.15-1.68-4.15-4.17,0-2.5,1.68-4.55,4.15-4.14,1.77.3,3.26,2.23,4.88,3.43,0,.54.01,1.09.02,1.63Z"/>
  <path class="cls-1" d="M44.09,120.71c1.75,1.51,3.51,3.04,5.58,4.84-1.75,1.97-3.44,3.86-5.13,5.75-5.59-4.74-5.62-5.48-.46-10.59Z"/>
  <path class="cls-1" d="M340.22,69.31c-3.77-.53-5.4-1.85-5.23-4.57.16-2.61,1.9-4.51,4.32-3.93,1.57.38,3.66,2.62,3.72,4.1.07,1.57-1.99,3.23-2.81,4.41Z"/>
  <path class="cls-1" d="M470.32,120.48c5.41,4.53,5.43,4.92.36,10.79-1.85-1.94-3.67-3.84-5.63-5.89,1.9-1.77,3.59-3.34,5.27-4.91Z"/>
  <path class="cls-1" d="M458.39,394.94c1.79,1.95,3.36,3.65,4.92,5.35-1.56,1.69-3.11,3.39-4.61,5.02-1.66-1.67-3.35-3.37-5.2-5.24,1.48-1.55,3.14-3.29,4.89-5.13Z"/>
  <path class="cls-1" d="M349.01,130.05c.33-1.07.47-2.25,1.02-3.19,2.39-4.09,4.81-8.16,7.41-12.11.63-.96,1.97-1.44,2.99-2.15-.15,1.17.05,2.55-.52,3.47-2.61,4.25-5.41,8.38-8.19,12.52-.49.73-1.21,1.31-1.83,1.96-.3-.16-.59-.33-.89-.49Z"/>
  <path class="cls-1" d="M475.55,360.78c-1.51,1.73-2.94,3.37-4.43,5.08-1.54-1.69-3.14-3.44-4.9-5.37,1.67-1.37,3.36-2.77,5.08-4.19,1.16,1.23,2.67,2.82,4.25,4.48Z"/>
  <path class="cls-1" d="M44.29,364.91c-.93-1.02-2.38-2.61-4.04-4.44,1.67-1.23,3.35-2.47,5.12-3.78.8.91,2.24,2.55,3.79,4.32-1.42,1.14-3.18,2.54-4.87,3.9Z"/>
  <path class="cls-1" d="M300.21,158.52c2.27-6.37,4.53-12.74,6.8-19.1.57.21,1.14.42,1.71.63-1.2,6.76-4.88,12.61-7.46,18.86-.35-.13-.7-.26-1.05-.39Z"/>
  <path class="cls-1" d="M193.76,391.19c2.98,7.02,5.96,14.03,9.27,21.85-5.6-6.9-8.69-13.93-9.27-21.85Z"/>
  <path class="cls-1" d="M322.08,389.48c-.8,8.74-4,15.88-9.28,22.17,3.01-7.19,6.02-14.38,9.28-22.17Z"/>
  <path class="cls-1" d="M80.51,174.61c-1.96,1.53-3.42,3.37-4.23,3.12-1.33-.4-2.67-2.03-3.13-3.43-.2-.63,1.82-2.85,2.66-2.76,1.37.15,2.6,1.6,4.7,3.07Z"/>
  <path class="cls-1" d="M213.56,158.2l-7.31-17.23c.65-.26,1.3-.51,1.95-.77,2.17,5.85,4.33,11.7,6.5,17.55l-1.14.45Z"/>
  <path class="cls-1" d="M30.59,225.36c-1.4-1.94-3.03-3.24-3.08-4.58-.04-1.09,1.83-2.25,2.85-3.37,1.15,1.27,2.86,2.39,3.23,3.85.22.9-1.62,2.31-3.01,4.1Z"/>
  <path class="cls-1" d="M441.57,170.14c1.53,2.26,3.07,3.56,3.04,4.82-.02.99-2.08,2.8-3.05,2.68-1.11-.13-2.63-1.9-2.81-3.12-.15-1.01,1.39-2.27,2.83-4.38Z"/>
  <path class="cls-1" d="M16.31,312.25c1.37,1.95,2.96,3.26,3.02,4.63.05,1.1-1.77,2.28-2.75,3.42-1.22-1.1-3.32-2.12-3.43-3.32-.11-1.25,1.69-2.68,3.16-4.73Z"/>
  <path class="cls-1" d="M484.07,216.26c1.53,2.1,3.16,3.39,3.21,4.72.03.99-1.97,2.79-3.13,2.84-.96.04-2.72-1.89-2.82-3.05-.1-1.18,1.42-2.48,2.74-4.51Z"/>
  <path class="cls-1" d="M502.58,269.55c-1.96,1.41-3.22,3.02-4.3,2.91-1.13-.12-2.9-1.88-2.91-2.93,0-1.16,1.75-3.32,2.6-3.26,1.34.11,2.55,1.71,4.6,3.28Z"/>
  <path class="cls-1" d="M20.42,269.46c-1.78,1.4-3.11,3.18-4.02,2.99-1.32-.28-2.99-1.84-3.27-3.13-.19-.85,1.84-3.11,2.79-3.06,1.32.07,2.55,1.71,4.5,3.2Z"/>
  <path class="cls-1" d="M497.96,321.26c-1.22-1.77-2.89-3.14-2.71-4.22.2-1.27,2-2.28,3.11-3.4,1.02,1.27,2.69,2.47,2.83,3.83.1,1-1.8,2.21-3.23,3.8Z"/>
  <path class="cls-1" d="M95.42,120.18c-1.07-1.72-2.35-2.87-2.21-3.81.14-.94,1.62-2.11,2.67-2.3.59-.11,2.16,1.62,2.1,2.44-.08,1.06-1.34,2.03-2.56,3.67Z"/>
  <path class="cls-1" d="M422.76,116.72c-1.6,1.11-2.74,2.5-3.61,2.35-.98-.17-2.36-1.74-2.35-2.7,0-.85,1.64-2.32,2.6-2.35.92-.03,1.88,1.44,3.36,2.7Z"/>
  <path class="cls-1" d="M329.89,86.05c-1.32,1.07-2.08,1.7-2.84,2.32-.62-.77-1.62-1.49-1.72-2.32-.08-.6,1.05-1.92,1.61-1.91.81.02,1.59.97,2.94,1.92Z"/>
  <path class="cls-1" d="M190.47,86.07c-1.27,1.04-2.04,2.16-2.78,2.14-.66-.02-1.81-1.31-1.78-2,.04-.79,1.04-1.97,1.81-2.15.58-.14,1.47,1.03,2.74,2.01Z"/>
</svg>